<?xml version="1.0" encoding="us-ascii" standalone="no"?><svg xmlns="http://www.w3.org/2000/svg" xmlns:xlink="http://www.w3.org/1999/xlink" contentStyleType="text/css" height="912px" preserveAspectRatio="none" style="width:499px;height:912px;background:#FFFFFF;" version="1.1" viewBox="0 0 499 912" width="499px" zoomAndPan="magnify"><defs/><g><text fill="#000000" font-family="sans-serif" font-size="14" font-weight="bold" lengthAdjust="spacing" textLength="152" x="169.5" y="27.9951">Functional example</text><line style="stroke:#181818;stroke-width:0.5;stroke-dasharray:5.0,5.0;" x1="38" x2="38" y1="73.5938" y2="876.7813"/><line style="stroke:#181818;stroke-width:0.5;stroke-dasharray:5.0,5.0;" x1="246" x2="246" y1="73.5938" y2="876.7813"/><line style="stroke:#181818;stroke-width:0.5;stroke-dasharray:5.0,5.0;" x1="454" x2="454" y1="73.5938" y2="876.7813"/><rect fill="#E2E2F0" height="30.2969" rx="2.5" ry="2.5" style="stroke:#181818;stroke-width:0.5;" width="66" x="5" y="42.2969"/><text fill="#000000" font-family="sans-serif" font-size="14" lengthAdjust="spacing" textLength="52" x="12" y="62.292">Client 1</text><rect fill="#E2E2F0" height="30.2969" rx="2.5" ry="2.5" style="stroke:#181818;stroke-width:0.5;" width="66" x="5" y="875.7813"/><text fill="#000000" font-family="sans-serif" font-size="14" lengthAdjust="spacing" textLength="52" x="12" y="895.7764">Client 1</text><rect fill="#E2E2F0" height="30.2969" rx="2.5" ry="2.5" style="stroke:#181818;stroke-width:0.5;" width="58" x="217" y="42.2969"/><text fill="#000000" font-family="sans-serif" font-size="14" lengthAdjust="spacing" textLength="44" x="224" y="62.292">Server</text><rect fill="#E2E2F0" height="30.2969" rx="2.5" ry="2.5" style="stroke:#181818;stroke-width:0.5;" width="58" x="217" y="875.7813"/><text fill="#000000" font-family="sans-serif" font-size="14" lengthAdjust="spacing" textLength="44" x="224" y="895.7764">Server</text><rect fill="#E2E2F0" height="30.2969" rx="2.5" ry="2.5" style="stroke:#181818;stroke-width:0.5;" width="66" x="421" y="42.2969"/><text fill="#000000" font-family="sans-serif" font-size="14" lengthAdjust="spacing" textLength="52" x="428" y="62.292">Client 2</text><rect fill="#E2E2F0" height="30.2969" rx="2.5" ry="2.5" style="stroke:#181818;stroke-width:0.5;" width="66" x="421" y="875.7813"/><text fill="#000000" font-family="sans-serif" font-size="14" lengthAdjust="spacing" textLength="52" x="428" y="895.7764">Client 2</text><rect fill="#EEEEEE" height="3" style="stroke:#EEEEEE;stroke-width:1.0;" width="492" x="0" y="104.1602"/><line style="stroke:#000000;stroke-width:1.0;" x1="0" x2="492" y1="104.1602" y2="104.1602"/><line style="stroke:#000000;stroke-width:1.0;" x1="0" x2="492" y1="107.1602" y2="107.1602"/><rect fill="#EEEEEE" height="23.1328" style="stroke:#000000;stroke-width:2.0;" width="171" x="160.5" y="93.5938"/><text fill="#000000" font-family="sans-serif" font-size="13" font-weight="bold" lengthAdjust="spacing" textLength="152" x="166.5" y="109.6606">List available games</text><polygon fill="#181818" points="234,143.8594,244,147.8594,234,151.8594,238,147.8594" style="stroke:#181818;stroke-width:1.0;"/><line style="stroke:#181818;stroke-width:1.0;" x1="38" x2="240" y1="147.8594" y2="147.8594"/><text fill="#000000" font-family="sans-serif" font-size="13" lengthAdjust="spacing" textLength="73" x="45" y="142.7935">LISTGAMES</text><polygon fill="#181818" points="49,172.9922,39,176.9922,49,180.9922,45,176.9922" style="stroke:#181818;stroke-width:1.0;"/><line style="stroke:#181818;stroke-width:1.0;" x1="43" x2="245" y1="176.9922" y2="176.9922"/><text fill="#000000" font-family="sans-serif" font-size="13" lengthAdjust="spacing" textLength="83" x="55" y="171.9263">GAMES 0 1 3</text><rect fill="#EEEEEE" height="3" style="stroke:#EEEEEE;stroke-width:1.0;" width="492" x="0" y="205.5586"/><line style="stroke:#000000;stroke-width:1.0;" x1="0" x2="492" y1="205.5586" y2="205.5586"/><line style="stroke:#000000;stroke-width:1.0;" x1="0" x2="492" y1="208.5586" y2="208.5586"/><rect fill="#EEEEEE" height="23.1328" style="stroke:#000000;stroke-width:2.0;" width="106" x="193" y="194.9922"/><text fill="#000000" font-family="sans-serif" font-size="13" font-weight="bold" lengthAdjust="spacing" textLength="87" x="199" y="211.0591">Join a game</text><polygon fill="#181818" points="234,245.2578,244,249.2578,234,253.2578,238,249.2578" style="stroke:#181818;stroke-width:1.0;"/><line style="stroke:#181818;stroke-width:1.0;" x1="38" x2="240" y1="249.2578" y2="249.2578"/><text fill="#000000" font-family="sans-serif" font-size="13" lengthAdjust="spacing" textLength="131" x="45" y="244.1919">Establish connection</text><polygon fill="#181818" points="49,274.3906,39,278.3906,49,282.3906,45,278.3906" style="stroke:#181818;stroke-width:1.0;"/><line style="stroke:#181818;stroke-width:1.0;stroke-dasharray:2.0,2.0;" x1="43" x2="245" y1="278.3906" y2="278.3906"/><text fill="#000000" font-family="sans-serif" font-size="13" lengthAdjust="spacing" textLength="149" x="55" y="273.3247">Connection established</text><polygon fill="#181818" points="234,303.5234,244,307.5234,234,311.5234,238,307.5234" style="stroke:#181818;stroke-width:1.0;"/><line style="stroke:#181818;stroke-width:1.0;" x1="38" x2="240" y1="307.5234" y2="307.5234"/><text fill="#000000" font-family="sans-serif" font-size="13" lengthAdjust="spacing" textLength="74" x="45" y="302.4575">JOIN gege 1</text><polygon fill="#181818" points="49,332.6563,39,336.6563,49,340.6563,45,336.6563" style="stroke:#181818;stroke-width:1.0;"/><line style="stroke:#181818;stroke-width:1.0;" x1="43" x2="245" y1="336.6563" y2="336.6563"/><text fill="#000000" font-family="sans-serif" font-size="13" lengthAdjust="spacing" textLength="18" x="55" y="331.5903">OK</text><polygon fill="#181818" points="257,361.7891,247,365.7891,257,369.7891,253,365.7891" style="stroke:#181818;stroke-width:1.0;"/><line style="stroke:#181818;stroke-width:1.0;" x1="251" x2="453" y1="365.7891" y2="365.7891"/><text fill="#000000" font-family="sans-serif" font-size="13" lengthAdjust="spacing" textLength="131" x="263" y="360.7231">Establish connection</text><polygon fill="#181818" points="442,390.9219,452,394.9219,442,398.9219,446,394.9219" style="stroke:#181818;stroke-width:1.0;"/><line style="stroke:#181818;stroke-width:1.0;stroke-dasharray:2.0,2.0;" x1="246" x2="448" y1="394.9219" y2="394.9219"/><text fill="#000000" font-family="sans-serif" font-size="13" lengthAdjust="spacing" textLength="149" x="253" y="389.856">Connection established</text><polygon fill="#181818" points="257,420.0547,247,424.0547,257,428.0547,253,424.0547" style="stroke:#181818;stroke-width:1.0;"/><line style="stroke:#181818;stroke-width:1.0;" x1="251" x2="453" y1="424.0547" y2="424.0547"/><text fill="#000000" font-family="sans-serif" font-size="13" lengthAdjust="spacing" textLength="63" x="263" y="418.9888">JOIN dnt 1</text><polygon fill="#181818" points="442,449.1875,452,453.1875,442,457.1875,446,453.1875" style="stroke:#181818;stroke-width:1.0;"/><line style="stroke:#181818;stroke-width:1.0;" x1="246" x2="448" y1="453.1875" y2="453.1875"/><text fill="#000000" font-family="sans-serif" font-size="13" lengthAdjust="spacing" textLength="18" x="253" y="448.1216">OK</text><rect fill="#EEEEEE" height="3" style="stroke:#EEEEEE;stroke-width:1.0;" width="492" x="0" y="481.7539"/><line style="stroke:#000000;stroke-width:1.0;" x1="0" x2="492" y1="481.7539" y2="481.7539"/><line style="stroke:#000000;stroke-width:1.0;" x1="0" x2="492" y1="484.7539" y2="484.7539"/><rect fill="#EEEEEE" height="23.1328" style="stroke:#000000;stroke-width:2.0;" width="119" x="186.5" y="471.1875"/><text fill="#000000" font-family="sans-serif" font-size="13" font-weight="bold" lengthAdjust="spacing" textLength="100" x="192.5" y="487.2544">Send a guess</text><polygon fill="#181818" points="234,521.4531,244,525.4531,234,529.4531,238,525.4531" style="stroke:#181818;stroke-width:1.0;"/><line style="stroke:#181818;stroke-width:1.0;" x1="38" x2="240" y1="525.4531" y2="525.4531"/><text fill="#000000" font-family="sans-serif" font-size="13" lengthAdjust="spacing" textLength="58" x="45" y="520.3872">GUESS a</text><polygon fill="#181818" points="49,550.5859,39,554.5859,49,558.5859,45,554.5859" style="stroke:#181818;stroke-width:1.0;"/><line style="stroke:#181818;stroke-width:1.0;" x1="43" x2="245" y1="554.5859" y2="554.5859"/><text fill="#000000" font-family="sans-serif" font-size="13" lengthAdjust="spacing" textLength="44" x="55" y="549.52">_a__a_</text><rect fill="#EEEEEE" height="3" style="stroke:#EEEEEE;stroke-width:1.0;" width="492" x="0" y="583.1523"/><line style="stroke:#000000;stroke-width:1.0;" x1="0" x2="492" y1="583.1523" y2="583.1523"/><line style="stroke:#000000;stroke-width:1.0;" x1="0" x2="492" y1="586.1523" y2="586.1523"/><rect fill="#EEEEEE" height="23.1328" style="stroke:#000000;stroke-width:2.0;" width="139" x="176.5" y="572.5859"/><text fill="#000000" font-family="sans-serif" font-size="13" font-weight="bold" lengthAdjust="spacing" textLength="120" x="182.5" y="588.6528">Recieve a guess</text><polygon fill="#181818" points="49,622.8516,39,626.8516,49,630.8516,45,626.8516" style="stroke:#181818;stroke-width:1.0;"/><line style="stroke:#181818;stroke-width:1.0;" x1="43" x2="245" y1="626.8516" y2="626.8516"/><text fill="#000000" font-family="sans-serif" font-size="13" lengthAdjust="spacing" textLength="184" x="55" y="621.7856">GAMEUPDATE 2 3 gege false</text><polygon fill="#181818" points="442,651.9844,452,655.9844,442,659.9844,446,655.9844" style="stroke:#181818;stroke-width:1.0;"/><line style="stroke:#181818;stroke-width:1.0;" x1="246" x2="448" y1="655.9844" y2="655.9844"/><text fill="#000000" font-family="sans-serif" font-size="13" lengthAdjust="spacing" textLength="184" x="253" y="650.9185">GAMEUPDATE 2 3 gege false</text><rect fill="#EEEEEE" height="3" style="stroke:#EEEEEE;stroke-width:1.0;" width="492" x="0" y="684.5508"/><line style="stroke:#000000;stroke-width:1.0;" x1="0" x2="492" y1="684.5508" y2="684.5508"/><line style="stroke:#000000;stroke-width:1.0;" x1="0" x2="492" y1="687.5508" y2="687.5508"/><rect fill="#EEEEEE" height="23.1328" style="stroke:#000000;stroke-width:2.0;" width="119" x="186.5" y="673.9844"/><text fill="#000000" font-family="sans-serif" font-size="13" font-weight="bold" lengthAdjust="spacing" textLength="100" x="192.5" y="690.0513">Send a guess</text><polygon fill="#181818" points="234,724.25,244,728.25,234,732.25,238,728.25" style="stroke:#181818;stroke-width:1.0;"/><line style="stroke:#181818;stroke-width:1.0;" x1="38" x2="240" y1="728.25" y2="728.25"/><text fill="#000000" font-family="sans-serif" font-size="13" lengthAdjust="spacing" textLength="98" x="45" y="723.1841">GUESS baobab</text><polygon fill="#181818" points="49,753.3828,39,757.3828,49,761.3828,45,757.3828" style="stroke:#181818;stroke-width:1.0;"/><line style="stroke:#181818;stroke-width:1.0;" x1="43" x2="245" y1="757.3828" y2="757.3828"/><text fill="#000000" font-family="sans-serif" font-size="13" lengthAdjust="spacing" textLength="48" x="55" y="752.3169">baobab</text><rect fill="#EEEEEE" height="3" style="stroke:#EEEEEE;stroke-width:1.0;" width="492" x="0" y="785.9492"/><line style="stroke:#000000;stroke-width:1.0;" x1="0" x2="492" y1="785.9492" y2="785.9492"/><line style="stroke:#000000;stroke-width:1.0;" x1="0" x2="492" y1="788.9492" y2="788.9492"/><rect fill="#EEEEEE" height="23.1328" style="stroke:#000000;stroke-width:2.0;" width="139" x="176.5" y="775.3828"/><text fill="#000000" font-family="sans-serif" font-size="13" font-weight="bold" lengthAdjust="spacing" textLength="120" x="182.5" y="791.4497">Recieve a guess</text><polygon fill="#181818" points="49,825.6484,39,829.6484,49,833.6484,45,829.6484" style="stroke:#181818;stroke-width:1.0;"/><line style="stroke:#181818;stroke-width:1.0;" x1="43" x2="245" y1="829.6484" y2="829.6484"/><text fill="#000000" font-family="sans-serif" font-size="13" lengthAdjust="spacing" textLength="180" x="55" y="824.5825">GAMEUPDATE 2 4 gege true</text><polygon fill="#181818" points="442,854.7813,452,858.7813,442,862.7813,446,858.7813" style="stroke:#181818;stroke-width:1.0;"/><line style="stroke:#181818;stroke-width:1.0;" x1="246" x2="448" y1="858.7813" y2="858.7813"/><text fill="#000000" font-family="sans-serif" font-size="13" lengthAdjust="spacing" textLength="180" x="253" y="853.7153">GAMEUPDATE 2 4 gege true</text><!--SRC=[dP5HQy8m483VyoiEtuKrxace8AuJdPjZqMUvjhSk4DFIf6K_VpMfexCLSH18Shbyz-LYfLK4pvLEhCmrAg1lF1QA62kmj3AH1MeBeuMIrCp12D20tmH_CmILDPNkt2y70Rm3u8o58MoaiO0rIeLnOvBXaGo48MkBZ6UUDeNDIkoMyzT8C1yPpzgKARWmF4004yTSvr83EjOWAZAsAIRD5oIvrkIUVgPsi8lVGw3p3KhxkFLszGOPPGH1tstxmjeR_3u1VaE0NmYaf_-vgCzz_QObWdHwQab5PhYzotqa163_0GSyDCD1FYYHL5ENC_WN-_Ud-Iu23XFVbazKXlfgrrFlC8unZp7kUxJnVsa_UXTRLhUikva_]--></g></svg>