<?xml version="1.0" encoding="us-ascii" standalone="no"?><svg xmlns="http://www.w3.org/2000/svg" xmlns:xlink="http://www.w3.org/1999/xlink" contentStyleType="text/css" height="448px" preserveAspectRatio="none" style="width:429px;height:448px;background:#FFFFFF;" version="1.1" viewBox="0 0 429 448" width="429px" zoomAndPan="magnify"><defs/><g><text fill="#000000" font-family="sans-serif" font-size="14" font-weight="bold" lengthAdjust="spacing" textLength="316" x="52.5" y="27.9951">Join a game with a duplicate client name</text><line style="stroke:#181818;stroke-width:0.5;stroke-dasharray:5.0,5.0;" x1="38" x2="38" y1="73.5938" y2="412.9219"/><line style="stroke:#181818;stroke-width:0.5;stroke-dasharray:5.0,5.0;" x1="211" x2="211" y1="73.5938" y2="412.9219"/><line style="stroke:#181818;stroke-width:0.5;stroke-dasharray:5.0,5.0;" x1="384" x2="384" y1="73.5938" y2="412.9219"/><rect fill="#E2E2F0" height="30.2969" rx="2.5" ry="2.5" style="stroke:#181818;stroke-width:0.5;" width="66" x="5" y="42.2969"/><text fill="#000000" font-family="sans-serif" font-size="14" lengthAdjust="spacing" textLength="52" x="12" y="62.292">Client 1</text><rect fill="#E2E2F0" height="30.2969" rx="2.5" ry="2.5" style="stroke:#181818;stroke-width:0.5;" width="66" x="5" y="411.9219"/><text fill="#000000" font-family="sans-serif" font-size="14" lengthAdjust="spacing" textLength="52" x="12" y="431.917">Client 1</text><rect fill="#E2E2F0" height="30.2969" rx="2.5" ry="2.5" style="stroke:#181818;stroke-width:0.5;" width="58" x="182" y="42.2969"/><text fill="#000000" font-family="sans-serif" font-size="14" lengthAdjust="spacing" textLength="44" x="189" y="62.292">Server</text><rect fill="#E2E2F0" height="30.2969" rx="2.5" ry="2.5" style="stroke:#181818;stroke-width:0.5;" width="58" x="182" y="411.9219"/><text fill="#000000" font-family="sans-serif" font-size="14" lengthAdjust="spacing" textLength="44" x="189" y="431.917">Server</text><rect fill="#E2E2F0" height="30.2969" rx="2.5" ry="2.5" style="stroke:#181818;stroke-width:0.5;" width="66" x="351" y="42.2969"/><text fill="#000000" font-family="sans-serif" font-size="14" lengthAdjust="spacing" textLength="52" x="358" y="62.292">Client 2</text><rect fill="#E2E2F0" height="30.2969" rx="2.5" ry="2.5" style="stroke:#181818;stroke-width:0.5;" width="66" x="351" y="411.9219"/><text fill="#000000" font-family="sans-serif" font-size="14" lengthAdjust="spacing" textLength="52" x="358" y="431.917">Client 2</text><rect fill="#EEEEEE" height="3" style="stroke:#EEEEEE;stroke-width:1.0;" width="422" x="0" y="104.1602"/><line style="stroke:#000000;stroke-width:1.0;" x1="0" x2="422" y1="104.1602" y2="104.1602"/><line style="stroke:#000000;stroke-width:1.0;" x1="0" x2="422" y1="107.1602" y2="107.1602"/><rect fill="#EEEEEE" height="23.1328" style="stroke:#000000;stroke-width:2.0;" width="106" x="158" y="93.5938"/><text fill="#000000" font-family="sans-serif" font-size="13" font-weight="bold" lengthAdjust="spacing" textLength="87" x="164" y="109.6606">Join a game</text><polygon fill="#181818" points="199,143.8594,209,147.8594,199,151.8594,203,147.8594" style="stroke:#181818;stroke-width:1.0;"/><line style="stroke:#181818;stroke-width:1.0;" x1="38" x2="205" y1="147.8594" y2="147.8594"/><text fill="#000000" font-family="sans-serif" font-size="13" lengthAdjust="spacing" textLength="131" x="45" y="142.7935">Establish connection</text><polygon fill="#181818" points="49,172.9922,39,176.9922,49,180.9922,45,176.9922" style="stroke:#181818;stroke-width:1.0;"/><line style="stroke:#181818;stroke-width:1.0;stroke-dasharray:2.0,2.0;" x1="43" x2="210" y1="176.9922" y2="176.9922"/><text fill="#000000" font-family="sans-serif" font-size="13" lengthAdjust="spacing" textLength="149" x="55" y="171.9263">Connection established</text><polygon fill="#181818" points="199,202.125,209,206.125,199,210.125,203,206.125" style="stroke:#181818;stroke-width:1.0;"/><line style="stroke:#181818;stroke-width:1.0;" x1="38" x2="205" y1="206.125" y2="206.125"/><text fill="#000000" font-family="sans-serif" font-size="13" lengthAdjust="spacing" textLength="74" x="45" y="201.0591">JOIN gege 1</text><polygon fill="#181818" points="49,231.2578,39,235.2578,49,239.2578,45,235.2578" style="stroke:#181818;stroke-width:1.0;"/><line style="stroke:#181818;stroke-width:1.0;" x1="43" x2="210" y1="235.2578" y2="235.2578"/><text fill="#000000" font-family="sans-serif" font-size="13" lengthAdjust="spacing" textLength="18" x="55" y="230.1919">OK</text><rect fill="#EEEEEE" height="3" style="stroke:#EEEEEE;stroke-width:1.0;" width="422" x="0" y="263.8242"/><line style="stroke:#000000;stroke-width:1.0;" x1="0" x2="422" y1="263.8242" y2="263.8242"/><line style="stroke:#000000;stroke-width:1.0;" x1="0" x2="422" y1="266.8242" y2="266.8242"/><rect fill="#EEEEEE" height="23.1328" style="stroke:#000000;stroke-width:2.0;" width="321" x="50.5" y="253.2578"/><text fill="#000000" font-family="sans-serif" font-size="13" font-weight="bold" lengthAdjust="spacing" textLength="302" x="56.5" y="269.3247">Join a game with a duplicate client name</text><polygon fill="#181818" points="222,303.5234,212,307.5234,222,311.5234,218,307.5234" style="stroke:#181818;stroke-width:1.0;"/><line style="stroke:#181818;stroke-width:1.0;" x1="216" x2="383" y1="307.5234" y2="307.5234"/><text fill="#000000" font-family="sans-serif" font-size="13" lengthAdjust="spacing" textLength="131" x="228" y="302.4575">Establish connection</text><polygon fill="#181818" points="372,332.6563,382,336.6563,372,340.6563,376,336.6563" style="stroke:#181818;stroke-width:1.0;"/><line style="stroke:#181818;stroke-width:1.0;stroke-dasharray:2.0,2.0;" x1="211" x2="378" y1="336.6563" y2="336.6563"/><text fill="#000000" font-family="sans-serif" font-size="13" lengthAdjust="spacing" textLength="149" x="218" y="331.5903">Connection established</text><polygon fill="#181818" points="222,361.7891,212,365.7891,222,369.7891,218,365.7891" style="stroke:#181818;stroke-width:1.0;"/><line style="stroke:#181818;stroke-width:1.0;" x1="216" x2="383" y1="365.7891" y2="365.7891"/><text fill="#000000" font-family="sans-serif" font-size="13" lengthAdjust="spacing" textLength="74" x="228" y="360.7231">JOIN gege 0</text><polygon fill="#181818" points="372,390.9219,382,394.9219,372,398.9219,376,394.9219" style="stroke:#181818;stroke-width:1.0;"/><line style="stroke:#181818;stroke-width:1.0;" x1="211" x2="378" y1="394.9219" y2="394.9219"/><text fill="#000000" font-family="sans-serif" font-size="13" lengthAdjust="spacing" textLength="54" x="218" y="389.856">ERROR 1</text><!--SRC=[bP313e8m38RlUug6EudiI38kX8EOI89FC4S3JUOWCFNrNHo82D5uw_gtNxxEajK8UKi69DJoWd0dsxYwkdQQbBG8IXCQ2yQ5Z7MojwIeawuJf3w90f03-4Uqd3XXVyF-cVjo4y3V09mn8HP2Gh2H7IOU4aCsM7dMD3IWMcDGMMeDys4O9kDu3Eah19msi5hZyc9_X1fhX6YYp93Yi5BwzaUpB__Fb__mvLk-kmzV1ydAiYZT8Gy0]--></g></svg>