<?xml version="1.0" encoding="us-ascii" standalone="no"?><svg xmlns="http://www.w3.org/2000/svg" xmlns:xlink="http://www.w3.org/1999/xlink" contentStyleType="text/css" height="491px" preserveAspectRatio="none" style="width:325px;height:491px;background:#FFFFFF;" version="1.1" viewBox="0 0 325 491" width="325px" zoomAndPan="magnify"><defs/><g><text fill="#000000" font-family="sans-serif" font-size="14" font-weight="bold" lengthAdjust="spacing" textLength="297" x="10" y="27.9951">Leave a game with inexistant game id</text><line style="stroke:#181818;stroke-width:0.5;stroke-dasharray:5.0,5.0;" x1="74.5" x2="74.5" y1="73.5938" y2="456.0547"/><line style="stroke:#181818;stroke-width:0.5;stroke-dasharray:5.0,5.0;" x1="247.5" x2="247.5" y1="73.5938" y2="456.0547"/><rect fill="#E2E2F0" height="30.2969" rx="2.5" ry="2.5" style="stroke:#181818;stroke-width:0.5;" width="66" x="41.5" y="42.2969"/><text fill="#000000" font-family="sans-serif" font-size="14" lengthAdjust="spacing" textLength="52" x="48.5" y="62.292">Client 1</text><rect fill="#E2E2F0" height="30.2969" rx="2.5" ry="2.5" style="stroke:#181818;stroke-width:0.5;" width="66" x="41.5" y="455.0547"/><text fill="#000000" font-family="sans-serif" font-size="14" lengthAdjust="spacing" textLength="52" x="48.5" y="475.0498">Client 1</text><rect fill="#E2E2F0" height="30.2969" rx="2.5" ry="2.5" style="stroke:#181818;stroke-width:0.5;" width="58" x="218.5" y="42.2969"/><text fill="#000000" font-family="sans-serif" font-size="14" lengthAdjust="spacing" textLength="44" x="225.5" y="62.292">Server</text><rect fill="#E2E2F0" height="30.2969" rx="2.5" ry="2.5" style="stroke:#181818;stroke-width:0.5;" width="58" x="218.5" y="455.0547"/><text fill="#000000" font-family="sans-serif" font-size="14" lengthAdjust="spacing" textLength="44" x="225.5" y="475.0498">Server</text><rect fill="#EEEEEE" height="3" style="stroke:#EEEEEE;stroke-width:1.0;" width="245" x="36.5" y="104.1602"/><line style="stroke:#000000;stroke-width:1.0;" x1="36.5" x2="281.5" y1="104.1602" y2="104.1602"/><line style="stroke:#000000;stroke-width:1.0;" x1="36.5" x2="281.5" y1="107.1602" y2="107.1602"/><rect fill="#EEEEEE" height="23.1328" style="stroke:#000000;stroke-width:2.0;" width="171" x="73.5" y="93.5938"/><text fill="#000000" font-family="sans-serif" font-size="13" font-weight="bold" lengthAdjust="spacing" textLength="152" x="79.5" y="109.6606">List available games</text><polygon fill="#181818" points="235.5,143.8594,245.5,147.8594,235.5,151.8594,239.5,147.8594" style="stroke:#181818;stroke-width:1.0;"/><line style="stroke:#181818;stroke-width:1.0;" x1="74.5" x2="241.5" y1="147.8594" y2="147.8594"/><text fill="#000000" font-family="sans-serif" font-size="13" lengthAdjust="spacing" textLength="73" x="81.5" y="142.7935">LISTGAMES</text><polygon fill="#181818" points="85.5,172.9922,75.5,176.9922,85.5,180.9922,81.5,176.9922" style="stroke:#181818;stroke-width:1.0;"/><line style="stroke:#181818;stroke-width:1.0;" x1="79.5" x2="246.5" y1="176.9922" y2="176.9922"/><text fill="#000000" font-family="sans-serif" font-size="13" lengthAdjust="spacing" textLength="83" x="91.5" y="171.9263">GAMES 0 1 3</text><rect fill="#EEEEEE" height="3" style="stroke:#EEEEEE;stroke-width:1.0;" width="245" x="36.5" y="205.5586"/><line style="stroke:#000000;stroke-width:1.0;" x1="36.5" x2="281.5" y1="205.5586" y2="205.5586"/><line style="stroke:#000000;stroke-width:1.0;" x1="36.5" x2="281.5" y1="208.5586" y2="208.5586"/><rect fill="#EEEEEE" height="23.1328" style="stroke:#000000;stroke-width:2.0;" width="106" x="106" y="194.9922"/><text fill="#000000" font-family="sans-serif" font-size="13" font-weight="bold" lengthAdjust="spacing" textLength="87" x="112" y="211.0591">Join a game</text><polygon fill="#181818" points="235.5,245.2578,245.5,249.2578,235.5,253.2578,239.5,249.2578" style="stroke:#181818;stroke-width:1.0;"/><line style="stroke:#181818;stroke-width:1.0;" x1="74.5" x2="241.5" y1="249.2578" y2="249.2578"/><text fill="#000000" font-family="sans-serif" font-size="13" lengthAdjust="spacing" textLength="131" x="81.5" y="244.1919">Establish connection</text><polygon fill="#181818" points="85.5,274.3906,75.5,278.3906,85.5,282.3906,81.5,278.3906" style="stroke:#181818;stroke-width:1.0;"/><line style="stroke:#181818;stroke-width:1.0;stroke-dasharray:2.0,2.0;" x1="79.5" x2="246.5" y1="278.3906" y2="278.3906"/><text fill="#000000" font-family="sans-serif" font-size="13" lengthAdjust="spacing" textLength="149" x="91.5" y="273.3247">Connection established</text><polygon fill="#181818" points="235.5,303.5234,245.5,307.5234,235.5,311.5234,239.5,307.5234" style="stroke:#181818;stroke-width:1.0;"/><line style="stroke:#181818;stroke-width:1.0;" x1="74.5" x2="241.5" y1="307.5234" y2="307.5234"/><text fill="#000000" font-family="sans-serif" font-size="13" lengthAdjust="spacing" textLength="74" x="81.5" y="302.4575">JOIN gege 0</text><polygon fill="#181818" points="85.5,332.6563,75.5,336.6563,85.5,340.6563,81.5,336.6563" style="stroke:#181818;stroke-width:1.0;"/><line style="stroke:#181818;stroke-width:1.0;" x1="79.5" x2="246.5" y1="336.6563" y2="336.6563"/><text fill="#000000" font-family="sans-serif" font-size="13" lengthAdjust="spacing" textLength="18" x="91.5" y="331.5903">OK</text><rect fill="#EEEEEE" height="3" style="stroke:#EEEEEE;stroke-width:1.0;" width="245" x="36.5" y="365.2227"/><line style="stroke:#000000;stroke-width:1.0;" x1="36.5" x2="281.5" y1="365.2227" y2="365.2227"/><line style="stroke:#000000;stroke-width:1.0;" x1="36.5" x2="281.5" y1="368.2227" y2="368.2227"/><rect fill="#EEEEEE" height="23.1328" style="stroke:#000000;stroke-width:2.0;" width="185" x="66.5" y="354.6563"/><text fill="#000000" font-family="sans-serif" font-size="13" font-weight="bold" lengthAdjust="spacing" textLength="166" x="72.5" y="370.7231">Send a guess too long</text><polygon fill="#181818" points="235.5,404.9219,245.5,408.9219,235.5,412.9219,239.5,408.9219" style="stroke:#181818;stroke-width:1.0;"/><line style="stroke:#181818;stroke-width:1.0;" x1="74.5" x2="241.5" y1="408.9219" y2="408.9219"/><text fill="#000000" font-family="sans-serif" font-size="13" lengthAdjust="spacing" textLength="97" x="81.5" y="403.856">LEAVE gege 10</text><polygon fill="#181818" points="85.5,434.0547,75.5,438.0547,85.5,442.0547,81.5,438.0547" style="stroke:#181818;stroke-width:1.0;"/><line style="stroke:#181818;stroke-width:1.0;stroke-dasharray:2.0,2.0;" x1="79.5" x2="246.5" y1="438.0547" y2="438.0547"/><text fill="#000000" font-family="sans-serif" font-size="13" lengthAdjust="spacing" textLength="54" x="91.5" y="432.9888">ERROR 2</text><!--SRC=[ROz1QyCm38Nl_XMFtWl9TYkaK8ePRTC5ah6xceXKuDabzhBz_2LnCpQQa-MdfqzFGO9Xv4mzWz3I1-DBmXLY-Ljy81kYA8rID-g2r78RnTNU20zlkW9vn4_wtr5nrtCtzMEfL9OX7wYWdiJGPTWymZsoJDqHwstqRf0VghUNtLbNAYhhxTsomIGZGOhdYNbqOkVqIoWz778nug-edRLS1t5sflx1xd-Ru7c2cqVSiJYyekMMaJncAqvJf8fjCqRwPEyHd8Dnjbs-K-_UTSIboK8gNPP5YIVr0m00]--></g></svg>