<?xml version="1.0" encoding="us-ascii" standalone="no"?><svg xmlns="http://www.w3.org/2000/svg" xmlns:xlink="http://www.w3.org/1999/xlink" contentStyleType="text/css" height="491px" preserveAspectRatio="none" style="width:299px;height:491px;background:#FFFFFF;" version="1.1" viewBox="0 0 299 491" width="299px" zoomAndPan="magnify"><defs/><g><text fill="#000000" font-family="sans-serif" font-size="14" font-weight="bold" lengthAdjust="spacing" textLength="271" x="10" y="27.9951">Leave a game with wrong game id</text><line style="stroke:#181818;stroke-width:0.5;stroke-dasharray:5.0,5.0;" x1="61.5" x2="61.5" y1="73.5938" y2="456.0547"/><line style="stroke:#181818;stroke-width:0.5;stroke-dasharray:5.0,5.0;" x1="234.5" x2="234.5" y1="73.5938" y2="456.0547"/><rect fill="#E2E2F0" height="30.2969" rx="2.5" ry="2.5" style="stroke:#181818;stroke-width:0.5;" width="66" x="28.5" y="42.2969"/><text fill="#000000" font-family="sans-serif" font-size="14" lengthAdjust="spacing" textLength="52" x="35.5" y="62.292">Client 1</text><rect fill="#E2E2F0" height="30.2969" rx="2.5" ry="2.5" style="stroke:#181818;stroke-width:0.5;" width="66" x="28.5" y="455.0547"/><text fill="#000000" font-family="sans-serif" font-size="14" lengthAdjust="spacing" textLength="52" x="35.5" y="475.0498">Client 1</text><rect fill="#E2E2F0" height="30.2969" rx="2.5" ry="2.5" style="stroke:#181818;stroke-width:0.5;" width="58" x="205.5" y="42.2969"/><text fill="#000000" font-family="sans-serif" font-size="14" lengthAdjust="spacing" textLength="44" x="212.5" y="62.292">Server</text><rect fill="#E2E2F0" height="30.2969" rx="2.5" ry="2.5" style="stroke:#181818;stroke-width:0.5;" width="58" x="205.5" y="455.0547"/><text fill="#000000" font-family="sans-serif" font-size="14" lengthAdjust="spacing" textLength="44" x="212.5" y="475.0498">Server</text><rect fill="#EEEEEE" height="3" style="stroke:#EEEEEE;stroke-width:1.0;" width="245" x="23.5" y="104.1602"/><line style="stroke:#000000;stroke-width:1.0;" x1="23.5" x2="268.5" y1="104.1602" y2="104.1602"/><line style="stroke:#000000;stroke-width:1.0;" x1="23.5" x2="268.5" y1="107.1602" y2="107.1602"/><rect fill="#EEEEEE" height="23.1328" style="stroke:#000000;stroke-width:2.0;" width="171" x="60.5" y="93.5938"/><text fill="#000000" font-family="sans-serif" font-size="13" font-weight="bold" lengthAdjust="spacing" textLength="152" x="66.5" y="109.6606">List available games</text><polygon fill="#181818" points="222.5,143.8594,232.5,147.8594,222.5,151.8594,226.5,147.8594" style="stroke:#181818;stroke-width:1.0;"/><line style="stroke:#181818;stroke-width:1.0;" x1="61.5" x2="228.5" y1="147.8594" y2="147.8594"/><text fill="#000000" font-family="sans-serif" font-size="13" lengthAdjust="spacing" textLength="73" x="68.5" y="142.7935">LISTGAMES</text><polygon fill="#181818" points="72.5,172.9922,62.5,176.9922,72.5,180.9922,68.5,176.9922" style="stroke:#181818;stroke-width:1.0;"/><line style="stroke:#181818;stroke-width:1.0;" x1="66.5" x2="233.5" y1="176.9922" y2="176.9922"/><text fill="#000000" font-family="sans-serif" font-size="13" lengthAdjust="spacing" textLength="83" x="78.5" y="171.9263">GAMES 0 1 3</text><rect fill="#EEEEEE" height="3" style="stroke:#EEEEEE;stroke-width:1.0;" width="245" x="23.5" y="205.5586"/><line style="stroke:#000000;stroke-width:1.0;" x1="23.5" x2="268.5" y1="205.5586" y2="205.5586"/><line style="stroke:#000000;stroke-width:1.0;" x1="23.5" x2="268.5" y1="208.5586" y2="208.5586"/><rect fill="#EEEEEE" height="23.1328" style="stroke:#000000;stroke-width:2.0;" width="106" x="93" y="194.9922"/><text fill="#000000" font-family="sans-serif" font-size="13" font-weight="bold" lengthAdjust="spacing" textLength="87" x="99" y="211.0591">Join a game</text><polygon fill="#181818" points="222.5,245.2578,232.5,249.2578,222.5,253.2578,226.5,249.2578" style="stroke:#181818;stroke-width:1.0;"/><line style="stroke:#181818;stroke-width:1.0;" x1="61.5" x2="228.5" y1="249.2578" y2="249.2578"/><text fill="#000000" font-family="sans-serif" font-size="13" lengthAdjust="spacing" textLength="131" x="68.5" y="244.1919">Establish connection</text><polygon fill="#181818" points="72.5,274.3906,62.5,278.3906,72.5,282.3906,68.5,278.3906" style="stroke:#181818;stroke-width:1.0;"/><line style="stroke:#181818;stroke-width:1.0;stroke-dasharray:2.0,2.0;" x1="66.5" x2="233.5" y1="278.3906" y2="278.3906"/><text fill="#000000" font-family="sans-serif" font-size="13" lengthAdjust="spacing" textLength="149" x="78.5" y="273.3247">Connection established</text><polygon fill="#181818" points="222.5,303.5234,232.5,307.5234,222.5,311.5234,226.5,307.5234" style="stroke:#181818;stroke-width:1.0;"/><line style="stroke:#181818;stroke-width:1.0;" x1="61.5" x2="228.5" y1="307.5234" y2="307.5234"/><text fill="#000000" font-family="sans-serif" font-size="13" lengthAdjust="spacing" textLength="74" x="68.5" y="302.4575">JOIN gege 0</text><polygon fill="#181818" points="72.5,332.6563,62.5,336.6563,72.5,340.6563,68.5,336.6563" style="stroke:#181818;stroke-width:1.0;"/><line style="stroke:#181818;stroke-width:1.0;" x1="66.5" x2="233.5" y1="336.6563" y2="336.6563"/><text fill="#000000" font-family="sans-serif" font-size="13" lengthAdjust="spacing" textLength="18" x="78.5" y="331.5903">OK</text><rect fill="#EEEEEE" height="3" style="stroke:#EEEEEE;stroke-width:1.0;" width="245" x="23.5" y="365.2227"/><line style="stroke:#000000;stroke-width:1.0;" x1="23.5" x2="268.5" y1="365.2227" y2="365.2227"/><line style="stroke:#000000;stroke-width:1.0;" x1="23.5" x2="268.5" y1="368.2227" y2="368.2227"/><rect fill="#EEEEEE" height="23.1328" style="stroke:#000000;stroke-width:2.0;" width="185" x="53.5" y="354.6563"/><text fill="#000000" font-family="sans-serif" font-size="13" font-weight="bold" lengthAdjust="spacing" textLength="166" x="59.5" y="370.7231">Send a guess too long</text><polygon fill="#181818" points="222.5,404.9219,232.5,408.9219,222.5,412.9219,226.5,408.9219" style="stroke:#181818;stroke-width:1.0;"/><line style="stroke:#181818;stroke-width:1.0;" x1="61.5" x2="228.5" y1="408.9219" y2="408.9219"/><text fill="#000000" font-family="sans-serif" font-size="13" lengthAdjust="spacing" textLength="89" x="68.5" y="403.856">LEAVE gege 1</text><polygon fill="#181818" points="72.5,434.0547,62.5,438.0547,72.5,442.0547,68.5,438.0547" style="stroke:#181818;stroke-width:1.0;"/><line style="stroke:#181818;stroke-width:1.0;stroke-dasharray:2.0,2.0;" x1="66.5" x2="233.5" y1="438.0547" y2="438.0547"/><text fill="#000000" font-family="sans-serif" font-size="13" lengthAdjust="spacing" textLength="54" x="78.5" y="432.9888">ERROR 3</text><!--SRC=[RP11QyCm38Nl_XMFtWiDknLIACMCTja2oTXTIqGgoEmIg-dVRn8tOwCvoPAUFZrPHLj6njGp20tzC6wYPzmwxvgOIstCXJgLIYxa5Aj3App4P0KAY4doNr5ortCtzUFJc3H59a51FKbBtyFI4HwGfkQ1ME-YTeliM7w-xjzjQM9blNj8jfZAs231oyGyUN6pyIMK3Jeiat16vPtZIiMxcVe7U_XjWkS9hfznf_puWOORnkRPM_usMIhPrQEbAuS0zHxj-9MBTzhzbusuPC6KBOgy6Ewy0m00]--></g></svg>